PathFileType	3	(X/Y/Z)	D:\Vicon Setup\UG\Test1\New Session\NewSession14.trc
DataRate	CameraRate	NumFrames	NumMarkers	Units	OrigDataRate	OrigDataStartFrame	OrigNumFrames
100.0	100.0	9	27	mm	100.0	420	173	
Frame#	Time	Sternum			LShoulder			RShoulder			LASIS			RASIS			RPSIS			LPSIS			RKneeLateral			RKneeMedial			RFibulaHead			RMidShank			RAnkleLateral			RAnkleMedial			RHeel			RMT5			RMT2			RToe			LKneeLateral			LKneeMedial			LFibulaHead			LMidShank			LAnkleLateral			LAnkleMedial			LHeel			LMT5			LMT2			LToe			
		X1	Y1	Z1	X2	Y2	Z2	X3	Y3	Z3	X4	Y4	Z4	X5	Y5	Z5	X6	Y6	Z6	X7	Y7	Z7	X8	Y8	Z8	X9	Y9	Z9	X10	Y10	Z10	X11	Y11	Z11	X12	Y12	Z12	X13	Y13	Z13	X14	Y14	Z14	X15	Y15	Z15	X16	Y16	Z16	X17	Y17	Z17	X18	Y18	Z18	X19	Y19	Z19	X20	Y20	Z20	X21	Y21	Z21	X22	Y22	Z22	X23	Y23	Z23	X24	Y24	Z24	X25	Y25	Z25	X26	Y26	Z26	X27	Y27	Z27	
420	4.19	-194.66316	1405.8899	-1559.5181	-405.52155	1465.9803	-1521.2583	-47.869045	1475.502	-1444.5139	-348.77115	1009.7431	-1483.1969	-93.807426	1039	-1479.3486	-161.78326	1073.8978	-1314.3453	-291.03452	1072.2489	-1314.7903	-58.250675	609.19318	-1605.5332	-183.56979	601.21826	-1631.9197	-53.580349	530.31439	-1607.1169	-139.82202	367.38232	-1601.074	-88.335716	172.32863	-1514.3348	-162.17764	197.60411	-1568.1571	-152.03815	163.53149	-1445.5358	-51.812546	74.65686	-1641.895	-114.82208	115.76619	-1655.0084	-112.7541	101.74062	-1697.0167	-357.72733	562.00385	-1277.0054	-225.88809	545.73499	-1291.6277	-356.74893	512.73859	-1234.5924	-277.38846	356.46823	-1204.5503	-317.01462	196.66368	-1050.5981	-239.52588	191.65672	-1102.1174	-247.45267	238.26501	-995.14331				-274.29193	57.662987	-1110.2758	-330.85687	51.86652	-1071.2355
421	4.2	-192.80614	1412.13	-1587.9132	-402.95181	1471.7433	-1551.412	-47.865818	1480.4688	-1473.0432	-348.19592	1014.2169	-1514.524	-93.412743	1043.4061	-1510.129	-162.91805	1079.5787	-1346.3494	-291.71237	1077.5333	-1346.9856	-57.988152	608.2229	-1629.9114	-181.88907	599.29797	-1656.6925	-52.753117	527.45612	-1634.7318	-138.2469	363.8074	-1642.9061	-87.219818	160.79108	-1572.7681	-161.12839	191.7359	-1623.6953	-150.3858	149.242	-1503.8876	-55.239586	70.818703	-1707.0801	-116.69524	115.57182	-1716.6249	-115.76819	104.91882	-1759.3706	-358.71521	567.48926	-1303.1533	-227.73151	550.13525	-1318.6318	-358.28885	518.75305	-1260.8408	-279.83481	363.19247	-1226.3405	-320.11078	208.58893	-1068.3568	-242.65045	201.50946	-1120.4309	-250.75424	255.19749	-1017.525				-276.86237	63.400032	-1119.6049	-332.15546	59.494961	-1077.5632
422	4.21	-190.93208	1417.5631	-1616.3297	-400.78217	1476.4996	-1581.0398	-47.906826	1483.937	-1501.4478	-347.34534	1018.2841	-1545.7432	-93.051216	1046.8419	-1540.8032	-163.82857	1083.8722	-1377.848	-292.31705	1081.9429	-1378.8815	-58.764832	605.05676	-1652.3241	-181.20851	595.2511	-1680.5432	-52.435913	523.31104	-1661.6417	-136.58884	360.13492	-1683.1832	-86.135429	151.57855	-1629.5336	-159.84866	187.19221	-1677.212	-148.26627	137.0518	-1560.5438	-58.91497	69.117081	-1770.0559	-118.95071	116.29358	-1775.0519	-119.09264	109.65855	-1818.5614	-359.5932	570.89612	-1332.3896	-229.34341	553.09039	-1347.6888	-359.74576	523.07318	-1289.3336	-280.67963	369.36435	-1248.9678	-323.48672	220.93687	-1087.5824	-245.3067	211.08966	-1139.1482	-254.55049	271.75836	-1041.3558				-278.5397	70.744095	-1128.5996	-333.4993	68.232841	-1085.4703
423	4.22	-188.84904	1422.1144	-1644.9568	-398.79471	1480.0392	-1610.0132	-47.498207	1486.061	-1529.913	-346.31943	1021.8325	-1576.9756	-92.699692	1049.0769	-1571.5288	-164.37416	1086.7291	-1409.078	-292.55573	1085.2821	-1410.3939	-59.748566	600.6792	-1673.6838	-181.14221	589.91718	-1703.9821	-52.355534	518.36438	-1687.4478	-135.23785	356.87933	-1721.2367	-85.033142	144.72395	-1683.9146	-158.71964	183.92551	-1727.9592	-145.95581	127.32835	-1614.7148	-62.773602	69.53344	-1829.7136	-121.38561	118.26366	-1830.2089	-122.75685	115.20642	-1874.1534	-360.65387	572.67401	-1363.4067	-231.31537	554.26953	-1379.3037	-361.53482	525.91968	-1319.6586	-281.55521	374.3063	-1273.1865	-326.04059	231.94727	-1108.0842	-247.92641	219.72101	-1158.0142	-258.79318	287.07184	-1065.6699				-279.20154	79.017799	-1137.9175	-334.03287	77.130493	-1094.2288
424	4.23	-186.90166	1425.6163	-1674.0862	-397.27112	1482.4462	-1638.5957	-46.821823	1486.7319	-1558.5591	-345.08099	1024.4868	-1608.0387	-92.333397	1049.9684	-1602.1086	-164.30627	1088.1469	-1440.0922	-292.42081	1087.4385	-1441.6285	-59.864742	595.97717	-1695.3176	-182.13646	583.70746	-1726.1945	-52.122978	513.73767	-1711.2656	-134.10313	354.81995	-1757.3188	-83.93988	140.17853	-1734.4191	-157.57675	182.22215	-1774.9373	-143.97871	120.40057	-1665.1287	-66.066498	71.178154	-1884.412	-123.43377	121.2134	-1880.9659	-125.92034	121.10844	-1925.0863	-361.79935	573.02576	-1396.1053	-233.78755	553.95563	-1412.5638	-363.45816	527.36737	-1351.536	-283.12936	378.12506	-1298.5709	-327.64822	241.69055	-1128.7085	-249.81792	227.87924	-1177.1963	-262.07339	300.95343	-1090.3998				-278.76639	88.148827	-1147.9608	-334.1543	85.959305	-1103.4578
425	4.24	-185.45732	1428.0334	-1703.3621	-395.73456	1483.4315	-1666.6582	-45.803402	1486.147	-1587.2151	-343.81146	1025.8826	-1639.0916	-91.850365	1049.564	-1632.4526	-163.68146	1088.0612	-1470.7466	-291.96625	1088.3463	-1472.4683	-59.302155	591.43854	-1717.5115	-184.03671	576.62268	-1746.61	-52.133636	509.85992	-1734.5338	-133.47066	353.63535	-1791.1024	-83.011322	137.32985	-1779.4437	-156.12512	182.21709	-1817.6854	-143.10223	115.70216	-1710.5862	-69.085251	72.79364	-1932.6401	-124.50292	124.45137	-1926.2803	-127.58264	126.65677	-1970.3683	-363.40994	572.00592	-1430.0892	-236.89116	552.38257	-1447.5894	-365.50296	527.453	-1384.524	-285.2092	380.7186	-1325.3328	-329.25595	252.15117	-1149.2467	-251.48621	236.21812	-1197.1614	-263.89145	313.9686	-1114.7593				-279.44739	98.431671	-1160.6826	-336.12985	97.564758	-1114.3118
426	4.25	-184.49695	1429.2124	-1732.6268	-394.27792	1482.9692	-1694.2666	-44.519348	1484.3674	-1615.984	-342.47668	1025.9147	-1669.7582	-91.222084	1047.9899	-1662.5956	-162.73413	1086.4515	-1500.8827	-291.41428	1087.7783	-1502.9806	-58.697926	587.07721	-1740.764	-186.06981	569.19257	-1766.7009	-52.484684	506.33884	-1759.5151	-133.53139	352.42599	-1822.5533	-83.104042	135.00949	-1818.0304	-155.55774	182.26074	-1855.1368	-144.13615	112.26957	-1750.3976	-71.26178	73.451599	-1973.5892	-124.94118	126.46825	-1965.615	-127.90176	130.59384	-2009.4154	-364.99127	569.44684	-1465.9323	-239.88896	549.01813	-1484.0961	-367.63028	526.4173	-1418.9401	-287.52679	382.40042	-1353.6783	-330.40826	263.27716	-1170.4122	-252.70822	244.78432	-1218.6456	-264.7063	326.05887	-1139.4816				-280.75717	108.95163	-1176.6282	-337.23181	110.70894	-1128.4252
427	4.26	-183.85428	1429.0641	-1761.6783	-393.51273	1481.5201	-1721.9521	-42.948963	1481.3051	-1644.821	-341.66772	1024.7413	-1700.6227	-90.439102	1045.3182	-1692.309	-162.01268	1083.2966	-1530.6682	-290.99573	1085.6935	-1533.2085	-58.357101	582.591	-1765.5322	-187.11835	561.56573	-1788.0131	-53.218056	503.01767	-1786.6477	-133.84651	350.28903	-1852.1156	-84.616165	131.92854	-1850.5518	-155.67569	181.01701	-1888.2938	-147.14775	109.51632	-1784.3497	-72.680038	71.670647	-2006.9807	-125.20525	125.55538	-1998.9642	-127.50457	130.62494	-2042.5215	-366.41577	565.32117	-1503.3771	-242.85194	543.92603	-1522.2642	-369.65155	524.28754	-1454.9681	-289.75751	383.4881	-1383.62	-330.26321	273.65958	-1193.9146	-253.55751	253.21495	-1241.964	-264.47458	337.54971	-1165.3036				-282.457	119.6085	-1195.5288	-338.24945	123.23193	-1147.2732
428	4.27	-183.42569	1427.5599	-1790.4939	-392.70209	1478.8114	-1749.2833	-41.142063	1476.9674	-1673.5786	-340.76517	1022.2097	-1731.0216	-89.489098	1041.6082	-1721.6334	-161.6689	1078.8688	-1559.7069	-290.73196	1082.1205	-1563.1895	-58.33535	578.14783	-1792.5126	-188.4501	555.62207	-1812.5087	-54.224937	499.31546	-1814.0424	-134.58455	346.63739	-1879.8091	-86.975128	127.62742	-1877.9401	-156.76979	177.722	-1917.1758	-151.14822	106.81105	-1812.7775	-73.949883	66.041351	-2033.6814	-125.60406	120.80892	-2026.957	-127.01877	125.88361	-2070.3284	-368.14563	560.15057	-1542.2325	-245.59015	537.52191	-1561.7316	-371.42743	520.93225	-1493.0052	-291.06107	383.73502	-1415.4818	-330.10452	284.55975	-1219.4644	-253.87498	261.70465	-1267.4133	-263.5141	348.63611	-1192.9409				-284.56323	130.23543	-1217.4994	-339.87747	135.51489	-1168.6714
